# xmcd
#
# Track frame offsets:
#	150
#	11400
#	28070
#	40104
#	53380
#	65155
#	81551
#	92321
#	105756
#	118623
#	137555
#	155788
#	169468
#	184049
#	198000
#	208801
#	229353
#	242479
#	255306
#	271763
#	289015
#	303761
#
# Disc length: 4217 seconds
#
# Revision: 0
# Processed by: cddbd v1.5.2PL0 Copyright (c) Steve Scherf et al.
# Submitted via: EasyCDDAExtractor 11.1.0.1
#
DISCID=20107716
DTITLE=Various Artist - La Legende Country. CD1
DYEAR=2007
DGENRE=Country
TTITLE0=Willie Nelson - On The Road Again
TTITLE1=Johnny Cash and June Carter Cash - The City Of New Orleans
TTITLE2=Tammy Wynette - Stand By Your Man
TTITLE3=B.J.Thomas - Raindrops Keep Fallin' On My Head
TTITLE4=Charlie Rich - The Most Beautiful Girl
TTITLE5=Dolly Parton - Jolene
TTITLE6=Roger Miller - King Of The Road
TTITLE7=Charlie Daniels - Layla
TTITLE8=Lynn Anderson - Rose Garden
TTITLE9=K.T.Oslin - 80's Ladies
TTITLE10=Kris Kristofferson - Me And Bobby McGee
TTITLE11=Earl Scruggs - Dueling Banjos
TTITLE12=David Allan Coe (feat.Willie Nelson) - I've Already Cheated On You
TTITLE13=Merie Haggard - I'm a Lonesome Fugitive
TTITLE14=Tanya Tucker - Would You Lay With Me (In A Field Of Stone)
TTITLE15=Patty Loveless - When The Fallen Angels Fly
TTITLE16=Pete Seeger - Waist Deep In The Big Muddy
TTITLE17=Dolly Parton, Tammy Wynette and Loretta Lynn - It Wasn't God Who Made H
TTITLE17=onky Tonk Angels
TTITLE18=The Byrds - I'm A Pilgrim
TTITLE19=Poco - Consequently So Long
TTITLE20=George Jones - He Stopped Loving Her Today
TTITLE21=Charlie McCoy - Orange Blossom Special
EXTD=
EXTT0=
EXTT1=
EXTT2=
EXTT3=
EXTT4=
EXTT5=
EXTT6=
EXTT7=
EXTT8=
EXTT9=
EXTT10=
EXTT11=
EXTT12=
EXTT13=
EXTT14=
EXTT15=
EXTT16=
EXTT17=
EXTT18=
EXTT19=
EXTT20=
EXTT21=
PLAYORDER=
